<?xml version="1.0" encoding="UTF-8" standalone="no"?>
<svg
   xmlns:dc="http://purl.org/dc/elements/1.1/"
   xmlns:cc="http://creativecommons.org/ns#"
   xmlns:rdf="http://www.w3.org/1999/02/22-rdf-syntax-ns#"
   xmlns:svg="http://www.w3.org/2000/svg"
   xmlns="http://www.w3.org/2000/svg"
   xmlns:sodipodi="http://sodipodi.sourceforge.net/DTD/sodipodi-0.dtd"
   xmlns:inkscape="http://www.inkscape.org/namespaces/inkscape"
   width="24"
   height="24"
   viewBox="0 0 24 24"
   fill="none"
   version="1.1"
   id="svg897"
   sodipodi:docname="crown-yellow.svg"
   inkscape:version="1.0.1 (0767f8302a, 2020-10-17)">
  <metadata
     id="metadata903">
    <rdf:RDF>
      <cc:Work
         rdf:about="">
        <dc:format>image/svg+xml</dc:format>
        <dc:type
           rdf:resource="http://purl.org/dc/dcmitype/StillImage" />
      </cc:Work>
    </rdf:RDF>
  </metadata>
  <defs
     id="defs901" />
  <sodipodi:namedview
     pagecolor="#ffffff"
     bordercolor="#666666"
     borderopacity="1"
     objecttolerance="10"
     gridtolerance="10"
     guidetolerance="10"
     inkscape:pageopacity="0"
     inkscape:pageshadow="2"
     inkscape:window-width="1848"
     inkscape:window-height="1016"
     id="namedview899"
     showgrid="false"
     inkscape:zoom="34.375"
     inkscape:cx="12"
     inkscape:cy="12"
     inkscape:window-x="72"
     inkscape:window-y="27"
     inkscape:window-maximized="1"
     inkscape:current-layer="layer1" />
  <g
     inkscape:groupmode="layer"
     id="layer1"
     inkscape:label="Layer 1">
    <path
       fill-rule="evenodd"
       clip-rule="evenodd"
       d="m 3.1399998,6.7314298 4.71997,4.7199722 4.7805322,-4.7805222 4.7806,4.7805222 4.7189,-4.7189522 v 8.8766522 c 0,1.6569 -1.3431,3 -3,3 H 6.1399998 c -1.65686,0 -3,-1.3431 -3,-3 z M 20.140002,11.548702 v 4.0604 c 0,0.5523 -0.4477,1 -1,1 H 6.1399998 c -0.55229,0 -1,-0.4477 -1,-1 v -4.0614 l 2.71997,2.72 4.7805322,-4.7805322 4.7806,4.7805322 z"
       fill="#ffff00"
       id="path895-3"
       style="fill:#000000;fill-opacity:1" />
  </g>
  <g
     inkscape:groupmode="layer"
     id="layer2"
     inkscape:label="Layer 2">
    <path
       fill-rule="evenodd"
       clip-rule="evenodd"
       d="M2.5 6.09143L7.21997 10.8114L12.0005 6.03088L16.7811 10.8114L21.5 6.09245V14.9691C21.5 16.626 20.1569 17.9691 18.5 17.9691H5.5C3.84314 17.9691 2.5 16.626 2.5 14.9691V6.09143ZM19.5 10.9087V14.9691C19.5 15.5214 19.0523 15.9691 18.5 15.9691H5.5C4.94771 15.9691 4.5 15.5214 4.5 14.9691V10.9077L7.21997 13.6277L12.0005 8.84717L16.7811 13.6277L19.5 10.9087Z"
       fill="yellow"
       id="path895" />
  </g>
</svg>
